# xmcd
#
# Track frame offsets: 
#        150
#        15497
#        34852
#        52237
#        68077
#        84000
#        103397
#        121375
#        144727
#        160845
#        174375
#
# Disc length: 2571 seconds
#
# Revision: 2
# Processed by: cddbd v1.5PL3 Copyright (c) Steve Scherf et al.
# Submitted via: ExactAudioCopy v0.95a4
#
DISCID=900a090b
DTITLE=Olivia Newton-John - Back With a Heart
DYEAR=1998
DGENRE=Country
TTITLE0=Precious Love
TTITLE1=Closer to Me
TTITLE2=Fight for Our Love
TTITLE3=Spinning His Wheels
TTITLE4=Under My Skin
TTITLE5=Love Is a Gift
TTITLE6=I Don't Wanna Say Goodnight
TTITLE7=Don't Say That
TTITLE8=Attention
TTITLE9=Back With a Heart
TTITLE10=I Honestly Love You
EXTD=0\n\n\n
EXTT0=
EXTT1=
EXTT2=
EXTT3=
EXTT4=
EXTT5=
EXTT6=
EXTT7=
EXTT8=
EXTT9=
EXTT10=
PLAYORDER=
